<?xml version="1.0" encoding="UTF-8"?>
<svg width="304px" height="66px" viewBox="0 0 304 66" version="1.1" xmlns="http://www.w3.org/2000/svg" xmlns:xlink="http://www.w3.org/1999/xlink">
    <!-- Generator: Sketch 54.1 (76490) - https://sketchapp.com -->
    <title>Group 6</title>
    <desc>Created with Sketch.</desc>
    <g id="Page-1" stroke="none" stroke-width="1" fill="none" fill-rule="evenodd">
        <g id="Group-5" transform="translate(-148.000000, -178.000000)">
            <g id="Group-6" transform="translate(148.000000, 174.000000)">
                <g id="lightning" transform="translate(0.000000, 4.000000)" fill-rule="nonzero">
                    <path d="M29.5896179,24.7500716 L20.4885871,24.7500716 L30.8772368,1.92496865 C31.1884102,1.22900197 30.8627083,0.418566251 30.1496245,0.114733422 C29.9729054,0.0394519738 29.7823183,0.000393277483 29.5896179,6.5577174e-06 L1.41310024,6.5577174e-06 C0.635034548,-0.00231376088 0.00238565064,0.611410508 8.26439253e-06,1.37079922 C-0.000123812621,1.40805323 0.00132903453,1.44517832 0.00423472884,1.48230342 L2.82183367,37.2323544 C2.87928717,37.9495906 3.49357736,38.5023421 4.23069918,38.5001507 L8.59241049,38.5001507 L11.2833476,64.7626767 C11.361273,65.5181982 12.0520358,66.069145 12.8262713,65.9929612 C13.3360885,65.9428165 13.7778861,65.6264797 13.9798319,65.1669278 L30.8856897,26.6667836 C31.1922404,25.9687545 30.8609913,25.1605102 30.1459263,24.861318 C29.9701318,24.7877123 29.7808655,24.7499427 29.5896179,24.7500716 Z" id="Path" fill="#FFC107"></path>
                    <path d="M12.6823807,65.9999819 C11.9563005,66.0035913 11.3463033,65.4677271 11.2736689,64.76248 L8.59160952,38.4999823 L4.23037412,38.4999823 C3.49333273,38.5021737 2.87924163,37.9494229 2.82166234,37.2321874 L0.00437083151,1.48217512 C-0.0563779658,0.725107542 0.523244798,0.0633018316 1.29884846,0.00413377139 C1.33688249,0.00116892306 1.37491652,-0.000120141437 1.41308262,8.7650126e-06 L29.5863939,8.7650126e-06 C30.3643747,0.00194236175 30.9935209,0.619017534 30.99154,1.37840543 C30.9910117,1.56647994 30.9509967,1.75249194 30.8738722,1.92496877 L20.4863561,24.7499181 L29.5863939,24.7499181 C30.3643747,24.7472111 30.9972186,25.3606769 30.999992,26.1200648 C31.0006523,26.3109752 30.9606373,26.4999521 30.8824562,26.6748781 L13.9784431,65.1749806 C13.7535405,65.6777158 13.244175,66.0019155 12.6823807,65.9999819 Z M5.53475645,35.7498921 L9.86495713,35.7498921 C10.5910373,35.7462828 11.2010345,36.2821469 11.2736689,36.9873941 L13.550032,59.1799284 L27.4508095,27.4998794 L18.3169637,27.4998794 C17.5389829,27.4979458 16.9098367,26.8808706 16.9118176,26.1214827 C16.9123459,25.9334082 16.9523608,25.7473962 17.0293533,25.5749194 L27.4168694,2.74984114 L2.93431174,2.74984114 L5.53475645,35.7498921 Z" id="Shape" fill="#000000"></path>
                </g>
                <text id="INSTAPAY" font-family="Sequel-Regular, Sequel" font-size="60" font-weight="normal" fill="#FFFFFF">
                    <tspan x="43" y="67">INSTAPAY</tspan>
                </text>
            </g>
        </g>
    </g>
</svg>