<svg width="344" height="77" viewBox="0 0 344 77" fill="none" xmlns="http://www.w3.org/2000/svg">
<path d="M135.682 15.4545H146.909V45.4773C146.909 48.947 146.083 51.9697 144.432 54.5455C142.78 57.1061 140.477 59.0909 137.523 60.5C134.568 61.8939 131.136 62.5909 127.227 62.5909C123.273 62.5909 119.818 61.8939 116.864 60.5C113.909 59.0909 111.614 57.1061 109.977 54.5455C108.341 51.9697 107.523 48.947 107.523 45.4773V15.4545H118.773V44.5C118.773 46.1061 119.121 47.5379 119.818 48.7955C120.53 50.053 121.523 51.0379 122.795 51.75C124.068 52.4621 125.545 52.8182 127.227 52.8182C128.909 52.8182 130.379 52.4621 131.636 51.75C132.909 51.0379 133.902 50.053 134.614 48.7955C135.326 47.5379 135.682 46.1061 135.682 44.5V15.4545ZM193.574 15.4545V62H184.028L165.506 35.1364H165.21V62H153.96V15.4545H163.642L181.96 42.2727H182.347V15.4545H193.574ZM211.898 15.4545V62H200.648V15.4545H211.898ZM218.96 62V15.4545H238.188C241.672 15.4545 244.68 16.1364 247.21 17.5C249.756 18.8485 251.718 20.7348 253.097 23.1591C254.475 25.5682 255.165 28.3712 255.165 31.5682C255.165 34.7803 254.46 37.5909 253.051 40C251.657 42.3939 249.665 44.25 247.074 45.5682C244.483 46.8864 241.407 47.5455 237.847 47.5455H225.983V38.6818H235.756C237.453 38.6818 238.869 38.3864 240.006 37.7955C241.157 37.2045 242.028 36.3788 242.619 35.3182C243.21 34.2424 243.506 32.9924 243.506 31.5682C243.506 30.1288 243.21 28.8864 242.619 27.8409C242.028 26.7803 241.157 25.9621 240.006 25.3864C238.854 24.8106 237.438 24.5227 235.756 24.5227H230.21V62H218.96ZM265.153 62H253.062L268.767 15.4545H283.744L299.449 62H287.358L276.426 27.1818H276.062L265.153 62ZM263.54 43.6818H288.812V52.2273H263.54V43.6818ZM297.392 15.4545H309.96L319.801 34.9318H320.21L330.051 15.4545H342.619L325.597 46.4545V62H314.415V46.4545L297.392 15.4545Z" fill="white"/>
<path d="M29.5772 10.0641L5.06413 34.5771C3.37186 36.2694 3.37186 39.0131 5.06413 40.7054L32.6413 68.2825C34.3336 69.9748 37.0773 69.9748 38.7696 68.2825L63.2826 43.7695C64.9749 42.0772 64.9749 39.3335 63.2826 37.6412L35.7054 10.0641C34.0131 8.37181 31.2694 8.3718 29.5772 10.0641Z" stroke="#FFC107" stroke-width="7" stroke-linecap="round" stroke-linejoin="round"/>
<path d="M55.5772 10.0641L31.0641 34.5771C29.3719 36.2694 29.3719 39.0131 31.0641 40.7054L55.5772 65.2184C57.2694 66.9107 60.0131 66.9107 61.7054 65.2184L86.2184 40.7054C87.9107 39.0131 87.9107 36.2694 86.2184 34.5771L61.7054 10.0641C60.0131 8.3718 57.2694 8.3718 55.5772 10.0641Z" stroke="#FFC107" stroke-width="7" stroke-linecap="round" stroke-linejoin="round"/>
</svg>
